<?xml version="1.0" encoding="iso-8859-1"?>
<!-- Generator: Adobe Illustrator 19.0.0, SVG Export Plug-In . SVG Version: 6.00 Build 0)  -->
<svg version="1.1" id="Layer_1" xmlns="http://www.w3.org/2000/svg" xmlns:xlink="http://www.w3.org/1999/xlink" x="0px" y="0px"
	 viewBox="0 0 511.996 511.996" style="enable-background:new 0 0 511.996 511.996;" xml:space="preserve">
<g>
	<g>
		<path style="fill:#F0C419;" d="M199.896,159.414c-2.26,0-4.52-0.865-6.241-2.586l-43.688-43.697
			c-3.452-3.452-3.452-9.039,0-12.482c3.443-3.452,9.031-3.452,12.482,0l43.688,43.697c3.452,3.452,3.452,9.039,0,12.482
			C204.416,158.549,202.156,159.414,199.896,159.414"/>
		<path style="fill:#F0C419;" d="M143.716,128.203c-2.26,0-4.52-0.865-6.241-2.586c-3.452-3.452-3.452-9.039,0-12.482l12.491-12.491
			c3.452-3.443,9.031-3.443,12.482,0c3.452,3.452,3.452,9.039,0,12.482l-12.491,12.491
			C148.235,127.338,145.976,128.203,143.716,128.203"/>
	</g>
	<g>
		<polygon style="fill:#A4E869;" points="287.286,163.068 262.321,138.104 287.286,113.131 312.25,138.104 		"/>
		<polygon style="fill:#A4E869;" points="337.223,213.005 312.258,188.041 337.223,163.068 362.187,188.041 		"/>
		<polygon style="fill:#A4E869;" points="437.095,312.878 412.131,287.913 437.095,262.94 462.06,287.913 		"/>
		<polygon style="fill:#A4E869;" points="387.159,262.941 362.194,237.977 387.159,213.003 412.123,237.977 		"/>
		<polygon style="fill:#A4E869;" points="487.032,362.814 462.068,337.849 487.032,312.876 511.996,337.849 		"/>
	</g>
	<g>
		<path style="fill:#F0C419;" d="M262.318,262.941c-17.24,17.24-45.18,17.24-62.42,0c-17.24-17.24-17.24-45.18,0-62.42
			c17.24-17.24,45.18-17.24,62.42,0S279.558,245.701,262.318,262.941"/>
		<path style="fill:#F0C419;" d="M424.611,425.235c-17.24,17.24-45.18,17.24-62.42,0s-17.24-45.18,0-62.42s45.18-17.24,62.42,0
			C441.852,380.055,441.852,407.994,424.611,425.235"/>
	</g>
	<path style="fill:#4FBA6F;" d="M499.516,375.299L249.837,125.619c-6.894-6.894-18.079-6.894-24.973,0l-49.938,49.938l24.973,24.964
		c17.231-17.24,45.18-17.24,62.42,0s17.24,45.18,0,62.42l99.875,99.875c17.231-17.24,45.18-17.24,62.42,0
		c17.231,17.231,17.231,45.18,0,62.42l24.964,24.964l49.938-49.938C506.41,393.369,506.41,382.193,499.516,375.299"/>
	<g>
		<path style="fill:#FFFFFF;" d="M387.155,409.095c-2.26,0-4.52-0.865-6.241-2.586c-3.452-3.452-3.452-9.039,0-12.482l12.491-12.491
			c3.452-3.443,9.031-3.443,12.482,0c3.452,3.452,3.452,9.039,0,12.482l-12.491,12.491
			C391.675,408.23,389.415,409.095,387.155,409.095"/>
		<path style="fill:#FFFFFF;" d="M224.862,246.802c-2.26,0-4.52-0.865-6.241-2.586c-3.452-3.452-3.452-9.039,0-12.482l12.491-12.491
			c3.452-3.443,9.031-3.443,12.482,0c3.452,3.452,3.452,9.039,0,12.482l-12.491,12.491
			C229.382,245.937,227.122,246.802,224.862,246.802"/>
	</g>
	<polygon style="fill:#4FBA6F;" points="0,273.653 141.241,273.653 141.241,185.378 0,185.378 	"/>
	<polygon style="fill:#DF4D60;" points="0,361.929 141.241,361.929 141.241,273.653 0,273.653 	"/>
	<polygon style="fill:#8697CB;" points="0,450.205 141.241,450.205 141.241,361.929 0,361.929 	"/>
	<g>
		<polygon style="fill:#F3D55B;" points="17.655,97.102 52.966,97.102 52.966,61.791 17.655,61.791 		"/>
		<polygon style="fill:#F3D55B;" points="88.276,97.102 123.586,97.102 123.586,61.791 88.276,61.791 		"/>
	</g>
	<path style="fill:#F0C419;" d="M141.241,185.375H0v-70.621C0,105,7.901,97.099,17.655,97.099h105.931
		c9.754,0,17.655,7.901,17.655,17.655V185.375z"/>
</g>
<g>
</g>
<g>
</g>
<g>
</g>
<g>
</g>
<g>
</g>
<g>
</g>
<g>
</g>
<g>
</g>
<g>
</g>
<g>
</g>
<g>
</g>
<g>
</g>
<g>
</g>
<g>
</g>
<g>
</g>
</svg>
